<mxfile host="app.diagrams.net" agent="Mozilla/5.0 (Windows NT 10.0; Win64; x64) AppleWebKit/537.36 (KHTML, like Gecko) Chrome/133.0.0.0 Safari/537.36" version="26.1.0">
  <diagram id="R2lEEEUBdFMjLlhIrx00" name="Page-1">
    <mxGraphModel dx="2820" dy="2270" grid="1" gridSize="10" guides="1" tooltips="1" connect="1" arrows="1" fold="1" page="1" pageScale="1" pageWidth="850" pageHeight="1100" math="0" shadow="0" extFonts="Permanent Marker^https://fonts.googleapis.com/css?family=Permanent+Marker">
      <root>
        <mxCell id="0" />
        <mxCell id="1" parent="0" />
        <mxCell id="bP_TO-FSREH4e1-JL_A2-2" value="Cliente" style="whiteSpace=wrap;html=1;align=center;" vertex="1" parent="1">
          <mxGeometry x="50" y="100" width="100" height="40" as="geometry" />
        </mxCell>
        <mxCell id="bP_TO-FSREH4e1-JL_A2-6" style="rounded=0;orthogonalLoop=1;jettySize=auto;html=1;endArrow=none;startFill=0;" edge="1" parent="1" source="bP_TO-FSREH4e1-JL_A2-3" target="bP_TO-FSREH4e1-JL_A2-2">
          <mxGeometry relative="1" as="geometry" />
        </mxCell>
        <mxCell id="bP_TO-FSREH4e1-JL_A2-3" value="nome" style="ellipse;whiteSpace=wrap;html=1;align=center;" vertex="1" parent="1">
          <mxGeometry x="120" y="10" width="100" height="40" as="geometry" />
        </mxCell>
        <mxCell id="bP_TO-FSREH4e1-JL_A2-5" style="rounded=0;orthogonalLoop=1;jettySize=auto;html=1;strokeWidth=1;endArrow=none;startFill=0;" edge="1" parent="1" source="bP_TO-FSREH4e1-JL_A2-4" target="bP_TO-FSREH4e1-JL_A2-2">
          <mxGeometry relative="1" as="geometry" />
        </mxCell>
        <mxCell id="bP_TO-FSREH4e1-JL_A2-4" value="idCliente" style="ellipse;whiteSpace=wrap;html=1;align=center;fontStyle=4;" vertex="1" parent="1">
          <mxGeometry x="20" y="20" width="100" height="40" as="geometry" />
        </mxCell>
        <mxCell id="bP_TO-FSREH4e1-JL_A2-7" style="rounded=0;orthogonalLoop=1;jettySize=auto;html=1;endArrow=none;startFill=0;entryX=1;entryY=0;entryDx=0;entryDy=0;" edge="1" parent="1" source="bP_TO-FSREH4e1-JL_A2-8" target="bP_TO-FSREH4e1-JL_A2-2">
          <mxGeometry relative="1" as="geometry">
            <mxPoint x="190" y="150" as="targetPoint" />
          </mxGeometry>
        </mxCell>
        <mxCell id="bP_TO-FSREH4e1-JL_A2-8" value="endereco" style="ellipse;whiteSpace=wrap;html=1;align=center;" vertex="1" parent="1">
          <mxGeometry x="220" y="40" width="100" height="40" as="geometry" />
        </mxCell>
        <mxCell id="bP_TO-FSREH4e1-JL_A2-9" style="rounded=0;orthogonalLoop=1;jettySize=auto;html=1;endArrow=none;startFill=0;entryX=0.61;entryY=1;entryDx=0;entryDy=0;entryPerimeter=0;" edge="1" parent="1" source="bP_TO-FSREH4e1-JL_A2-10" target="bP_TO-FSREH4e1-JL_A2-2">
          <mxGeometry relative="1" as="geometry">
            <mxPoint x="-20" y="250" as="targetPoint" />
          </mxGeometry>
        </mxCell>
        <mxCell id="bP_TO-FSREH4e1-JL_A2-10" value="telefone" style="ellipse;whiteSpace=wrap;html=1;align=center;" vertex="1" parent="1">
          <mxGeometry x="-20" y="150" width="100" height="40" as="geometry" />
        </mxCell>
        <mxCell id="bP_TO-FSREH4e1-JL_A2-11" style="rounded=0;orthogonalLoop=1;jettySize=auto;html=1;endArrow=none;startFill=0;entryX=0.75;entryY=1;entryDx=0;entryDy=0;" edge="1" parent="1" source="bP_TO-FSREH4e1-JL_A2-12" target="bP_TO-FSREH4e1-JL_A2-2">
          <mxGeometry relative="1" as="geometry">
            <mxPoint x="90" y="160" as="targetPoint" />
          </mxGeometry>
        </mxCell>
        <mxCell id="bP_TO-FSREH4e1-JL_A2-12" value="email" style="ellipse;whiteSpace=wrap;html=1;align=center;" vertex="1" parent="1">
          <mxGeometry x="160" y="150" width="100" height="40" as="geometry" />
        </mxCell>
        <mxCell id="bP_TO-FSREH4e1-JL_A2-13" value="Veiculo" style="whiteSpace=wrap;html=1;align=center;" vertex="1" parent="1">
          <mxGeometry x="50" y="420" width="100" height="40" as="geometry" />
        </mxCell>
        <mxCell id="bP_TO-FSREH4e1-JL_A2-14" style="rounded=0;orthogonalLoop=1;jettySize=auto;html=1;endArrow=none;startFill=0;" edge="1" parent="1" source="bP_TO-FSREH4e1-JL_A2-15" target="bP_TO-FSREH4e1-JL_A2-13">
          <mxGeometry relative="1" as="geometry" />
        </mxCell>
        <mxCell id="bP_TO-FSREH4e1-JL_A2-15" value="modelo" style="ellipse;whiteSpace=wrap;html=1;align=center;" vertex="1" parent="1">
          <mxGeometry x="130" y="330" width="100" height="40" as="geometry" />
        </mxCell>
        <mxCell id="bP_TO-FSREH4e1-JL_A2-16" style="rounded=0;orthogonalLoop=1;jettySize=auto;html=1;strokeWidth=1;endArrow=none;startFill=0;" edge="1" parent="1" source="bP_TO-FSREH4e1-JL_A2-17" target="bP_TO-FSREH4e1-JL_A2-13">
          <mxGeometry relative="1" as="geometry" />
        </mxCell>
        <mxCell id="bP_TO-FSREH4e1-JL_A2-17" value="placa" style="ellipse;whiteSpace=wrap;html=1;align=center;fontStyle=4;" vertex="1" parent="1">
          <mxGeometry x="-20" y="360" width="100" height="40" as="geometry" />
        </mxCell>
        <mxCell id="bP_TO-FSREH4e1-JL_A2-18" style="rounded=0;orthogonalLoop=1;jettySize=auto;html=1;endArrow=none;startFill=0;entryX=1;entryY=0;entryDx=0;entryDy=0;" edge="1" parent="1" source="bP_TO-FSREH4e1-JL_A2-19" target="bP_TO-FSREH4e1-JL_A2-13">
          <mxGeometry relative="1" as="geometry">
            <mxPoint x="200" y="470" as="targetPoint" />
          </mxGeometry>
        </mxCell>
        <mxCell id="bP_TO-FSREH4e1-JL_A2-19" value="ano" style="ellipse;whiteSpace=wrap;html=1;align=center;" vertex="1" parent="1">
          <mxGeometry x="230" y="360" width="100" height="40" as="geometry" />
        </mxCell>
        <mxCell id="bP_TO-FSREH4e1-JL_A2-20" style="rounded=0;orthogonalLoop=1;jettySize=auto;html=1;endArrow=none;startFill=0;entryX=0.61;entryY=1;entryDx=0;entryDy=0;entryPerimeter=0;" edge="1" parent="1" source="bP_TO-FSREH4e1-JL_A2-21" target="bP_TO-FSREH4e1-JL_A2-13">
          <mxGeometry relative="1" as="geometry">
            <mxPoint x="-10" y="570" as="targetPoint" />
          </mxGeometry>
        </mxCell>
        <mxCell id="bP_TO-FSREH4e1-JL_A2-21" value="marca" style="ellipse;whiteSpace=wrap;html=1;align=center;" vertex="1" parent="1">
          <mxGeometry y="490" width="100" height="40" as="geometry" />
        </mxCell>
        <mxCell id="bP_TO-FSREH4e1-JL_A2-25" style="rounded=0;orthogonalLoop=1;jettySize=auto;html=1;endArrow=none;startFill=0;" edge="1" parent="1" source="bP_TO-FSREH4e1-JL_A2-24" target="bP_TO-FSREH4e1-JL_A2-2">
          <mxGeometry relative="1" as="geometry" />
        </mxCell>
        <mxCell id="bP_TO-FSREH4e1-JL_A2-27" value="1" style="edgeLabel;html=1;align=center;verticalAlign=middle;resizable=0;points=[];" vertex="1" connectable="0" parent="bP_TO-FSREH4e1-JL_A2-25">
          <mxGeometry x="-0.1111" y="-1" relative="1" as="geometry">
            <mxPoint as="offset" />
          </mxGeometry>
        </mxCell>
        <mxCell id="bP_TO-FSREH4e1-JL_A2-26" style="rounded=0;orthogonalLoop=1;jettySize=auto;html=1;entryX=0.5;entryY=0;entryDx=0;entryDy=0;endArrow=none;startFill=0;" edge="1" parent="1" source="bP_TO-FSREH4e1-JL_A2-24" target="bP_TO-FSREH4e1-JL_A2-13">
          <mxGeometry relative="1" as="geometry" />
        </mxCell>
        <mxCell id="bP_TO-FSREH4e1-JL_A2-29" value="N" style="edgeLabel;html=1;align=center;verticalAlign=middle;resizable=0;points=[];" vertex="1" connectable="0" parent="bP_TO-FSREH4e1-JL_A2-26">
          <mxGeometry x="-0.4" y="1" relative="1" as="geometry">
            <mxPoint as="offset" />
          </mxGeometry>
        </mxCell>
        <mxCell id="bP_TO-FSREH4e1-JL_A2-24" value="Possui" style="shape=rhombus;perimeter=rhombusPerimeter;whiteSpace=wrap;html=1;align=center;" vertex="1" parent="1">
          <mxGeometry x="40" y="230" width="120" height="60" as="geometry" />
        </mxCell>
        <mxCell id="bP_TO-FSREH4e1-JL_A2-30" value="Mecanico" style="whiteSpace=wrap;html=1;align=center;" vertex="1" parent="1">
          <mxGeometry x="660" y="930" width="100" height="40" as="geometry" />
        </mxCell>
        <mxCell id="bP_TO-FSREH4e1-JL_A2-31" style="rounded=0;orthogonalLoop=1;jettySize=auto;html=1;endArrow=none;startFill=0;" edge="1" parent="1" source="bP_TO-FSREH4e1-JL_A2-32" target="bP_TO-FSREH4e1-JL_A2-30">
          <mxGeometry relative="1" as="geometry" />
        </mxCell>
        <mxCell id="bP_TO-FSREH4e1-JL_A2-32" value="nome" style="ellipse;whiteSpace=wrap;html=1;align=center;" vertex="1" parent="1">
          <mxGeometry x="800" y="790" width="100" height="40" as="geometry" />
        </mxCell>
        <mxCell id="bP_TO-FSREH4e1-JL_A2-33" style="rounded=0;orthogonalLoop=1;jettySize=auto;html=1;strokeWidth=1;endArrow=none;startFill=0;" edge="1" parent="1" source="bP_TO-FSREH4e1-JL_A2-34" target="bP_TO-FSREH4e1-JL_A2-30">
          <mxGeometry relative="1" as="geometry" />
        </mxCell>
        <mxCell id="bP_TO-FSREH4e1-JL_A2-34" value="idMecanico" style="ellipse;whiteSpace=wrap;html=1;align=center;fontStyle=4;" vertex="1" parent="1">
          <mxGeometry x="800" y="720" width="100" height="40" as="geometry" />
        </mxCell>
        <mxCell id="bP_TO-FSREH4e1-JL_A2-35" style="rounded=0;orthogonalLoop=1;jettySize=auto;html=1;endArrow=none;startFill=0;entryX=1;entryY=0;entryDx=0;entryDy=0;" edge="1" parent="1" source="bP_TO-FSREH4e1-JL_A2-36" target="bP_TO-FSREH4e1-JL_A2-30">
          <mxGeometry relative="1" as="geometry">
            <mxPoint x="735" y="830" as="targetPoint" />
          </mxGeometry>
        </mxCell>
        <mxCell id="bP_TO-FSREH4e1-JL_A2-36" value="endereco" style="ellipse;whiteSpace=wrap;html=1;align=center;" vertex="1" parent="1">
          <mxGeometry x="800" y="850" width="100" height="40" as="geometry" />
        </mxCell>
        <mxCell id="bP_TO-FSREH4e1-JL_A2-39" style="rounded=0;orthogonalLoop=1;jettySize=auto;html=1;endArrow=none;startFill=0;" edge="1" parent="1" source="bP_TO-FSREH4e1-JL_A2-40" target="bP_TO-FSREH4e1-JL_A2-30">
          <mxGeometry relative="1" as="geometry">
            <mxPoint x="685" y="820" as="targetPoint" />
          </mxGeometry>
        </mxCell>
        <mxCell id="bP_TO-FSREH4e1-JL_A2-40" value="especialidade" style="ellipse;whiteSpace=wrap;html=1;align=center;" vertex="1" parent="1">
          <mxGeometry x="770" y="910" width="100" height="40" as="geometry" />
        </mxCell>
        <mxCell id="bP_TO-FSREH4e1-JL_A2-41" value="Mecanico_Equipe" style="whiteSpace=wrap;html=1;align=center;" vertex="1" parent="1">
          <mxGeometry x="510" y="820" width="100" height="40" as="geometry" />
        </mxCell>
        <mxCell id="bP_TO-FSREH4e1-JL_A2-44" style="rounded=0;orthogonalLoop=1;jettySize=auto;html=1;strokeWidth=1;endArrow=none;startFill=0;" edge="1" parent="1" source="bP_TO-FSREH4e1-JL_A2-45" target="bP_TO-FSREH4e1-JL_A2-41">
          <mxGeometry relative="1" as="geometry" />
        </mxCell>
        <mxCell id="bP_TO-FSREH4e1-JL_A2-45" value="idMecanico" style="ellipse;whiteSpace=wrap;html=1;align=center;fontStyle=4;" vertex="1" parent="1">
          <mxGeometry x="390" y="750" width="100" height="40" as="geometry" />
        </mxCell>
        <mxCell id="bP_TO-FSREH4e1-JL_A2-50" style="rounded=0;orthogonalLoop=1;jettySize=auto;html=1;strokeWidth=1;endArrow=none;startFill=0;entryX=0.69;entryY=0.05;entryDx=0;entryDy=0;entryPerimeter=0;" edge="1" parent="1" source="bP_TO-FSREH4e1-JL_A2-51" target="bP_TO-FSREH4e1-JL_A2-41">
          <mxGeometry relative="1" as="geometry">
            <mxPoint x="247" y="700" as="targetPoint" />
          </mxGeometry>
        </mxCell>
        <mxCell id="bP_TO-FSREH4e1-JL_A2-51" value="idEquipe" style="ellipse;whiteSpace=wrap;html=1;align=center;fontStyle=4;" vertex="1" parent="1">
          <mxGeometry x="600" y="740" width="100" height="40" as="geometry" />
        </mxCell>
        <mxCell id="bP_TO-FSREH4e1-JL_A2-52" value="Equipe" style="whiteSpace=wrap;html=1;align=center;" vertex="1" parent="1">
          <mxGeometry x="500" y="600" width="100" height="40" as="geometry" />
        </mxCell>
        <mxCell id="bP_TO-FSREH4e1-JL_A2-55" style="rounded=0;orthogonalLoop=1;jettySize=auto;html=1;strokeWidth=1;endArrow=none;startFill=0;" edge="1" parent="1" source="bP_TO-FSREH4e1-JL_A2-56" target="bP_TO-FSREH4e1-JL_A2-52">
          <mxGeometry relative="1" as="geometry" />
        </mxCell>
        <mxCell id="bP_TO-FSREH4e1-JL_A2-56" value="idEquipe" style="ellipse;whiteSpace=wrap;html=1;align=center;fontStyle=4;" vertex="1" parent="1">
          <mxGeometry x="640" y="590" width="100" height="40" as="geometry" />
        </mxCell>
        <mxCell id="bP_TO-FSREH4e1-JL_A2-118" style="edgeStyle=orthogonalEdgeStyle;rounded=0;orthogonalLoop=1;jettySize=auto;html=1;entryX=0.5;entryY=0;entryDx=0;entryDy=0;endArrow=none;startFill=0;" edge="1" parent="1" source="bP_TO-FSREH4e1-JL_A2-61" target="bP_TO-FSREH4e1-JL_A2-116">
          <mxGeometry relative="1" as="geometry" />
        </mxCell>
        <mxCell id="bP_TO-FSREH4e1-JL_A2-120" value="N" style="edgeLabel;html=1;align=center;verticalAlign=middle;resizable=0;points=[];" vertex="1" connectable="0" parent="bP_TO-FSREH4e1-JL_A2-118">
          <mxGeometry x="0.0937" relative="1" as="geometry">
            <mxPoint as="offset" />
          </mxGeometry>
        </mxCell>
        <mxCell id="bP_TO-FSREH4e1-JL_A2-134" style="edgeStyle=orthogonalEdgeStyle;rounded=0;orthogonalLoop=1;jettySize=auto;html=1;entryX=0.5;entryY=1;entryDx=0;entryDy=0;endArrow=none;startFill=0;" edge="1" parent="1" source="bP_TO-FSREH4e1-JL_A2-61" target="bP_TO-FSREH4e1-JL_A2-131">
          <mxGeometry relative="1" as="geometry" />
        </mxCell>
        <mxCell id="bP_TO-FSREH4e1-JL_A2-135" value="1" style="edgeLabel;html=1;align=center;verticalAlign=middle;resizable=0;points=[];" vertex="1" connectable="0" parent="bP_TO-FSREH4e1-JL_A2-134">
          <mxGeometry x="0.3756" y="-4" relative="1" as="geometry">
            <mxPoint as="offset" />
          </mxGeometry>
        </mxCell>
        <mxCell id="bP_TO-FSREH4e1-JL_A2-61" value="OrdemServico" style="whiteSpace=wrap;html=1;align=center;" vertex="1" parent="1">
          <mxGeometry x="500" y="430" width="100" height="40" as="geometry" />
        </mxCell>
        <mxCell id="bP_TO-FSREH4e1-JL_A2-62" style="rounded=0;orthogonalLoop=1;jettySize=auto;html=1;endArrow=none;startFill=0;" edge="1" parent="1" source="bP_TO-FSREH4e1-JL_A2-63" target="bP_TO-FSREH4e1-JL_A2-61">
          <mxGeometry relative="1" as="geometry" />
        </mxCell>
        <mxCell id="bP_TO-FSREH4e1-JL_A2-63" value="dataEmissao" style="ellipse;whiteSpace=wrap;html=1;align=center;" vertex="1" parent="1">
          <mxGeometry x="580" y="340" width="100" height="40" as="geometry" />
        </mxCell>
        <mxCell id="bP_TO-FSREH4e1-JL_A2-64" style="rounded=0;orthogonalLoop=1;jettySize=auto;html=1;strokeWidth=1;endArrow=none;startFill=0;" edge="1" parent="1" source="bP_TO-FSREH4e1-JL_A2-65" target="bP_TO-FSREH4e1-JL_A2-61">
          <mxGeometry relative="1" as="geometry" />
        </mxCell>
        <mxCell id="bP_TO-FSREH4e1-JL_A2-65" value="numero" style="ellipse;whiteSpace=wrap;html=1;align=center;fontStyle=4;" vertex="1" parent="1">
          <mxGeometry x="430" y="370" width="100" height="40" as="geometry" />
        </mxCell>
        <mxCell id="bP_TO-FSREH4e1-JL_A2-66" style="rounded=0;orthogonalLoop=1;jettySize=auto;html=1;endArrow=none;startFill=0;entryX=1;entryY=0;entryDx=0;entryDy=0;" edge="1" parent="1" source="bP_TO-FSREH4e1-JL_A2-67" target="bP_TO-FSREH4e1-JL_A2-61">
          <mxGeometry relative="1" as="geometry">
            <mxPoint x="650" y="480" as="targetPoint" />
          </mxGeometry>
        </mxCell>
        <mxCell id="bP_TO-FSREH4e1-JL_A2-67" value="valorTotal" style="ellipse;whiteSpace=wrap;html=1;align=center;" vertex="1" parent="1">
          <mxGeometry x="680" y="370" width="100" height="40" as="geometry" />
        </mxCell>
        <mxCell id="bP_TO-FSREH4e1-JL_A2-68" style="rounded=0;orthogonalLoop=1;jettySize=auto;html=1;endArrow=none;startFill=0;" edge="1" parent="1" source="bP_TO-FSREH4e1-JL_A2-69" target="bP_TO-FSREH4e1-JL_A2-61">
          <mxGeometry relative="1" as="geometry">
            <mxPoint x="600" y="470" as="targetPoint" />
          </mxGeometry>
        </mxCell>
        <mxCell id="bP_TO-FSREH4e1-JL_A2-69" value="status" style="ellipse;whiteSpace=wrap;html=1;align=center;" vertex="1" parent="1">
          <mxGeometry x="680" y="420" width="100" height="40" as="geometry" />
        </mxCell>
        <mxCell id="bP_TO-FSREH4e1-JL_A2-70" style="rounded=0;orthogonalLoop=1;jettySize=auto;html=1;endArrow=none;startFill=0;entryX=1;entryY=1;entryDx=0;entryDy=0;" edge="1" parent="1" source="bP_TO-FSREH4e1-JL_A2-71" target="bP_TO-FSREH4e1-JL_A2-61">
          <mxGeometry relative="1" as="geometry">
            <mxPoint x="600" y="507" as="targetPoint" />
          </mxGeometry>
        </mxCell>
        <mxCell id="bP_TO-FSREH4e1-JL_A2-71" value="dataConclusao" style="ellipse;whiteSpace=wrap;html=1;align=center;" vertex="1" parent="1">
          <mxGeometry x="680" y="480" width="100" height="40" as="geometry" />
        </mxCell>
        <mxCell id="bP_TO-FSREH4e1-JL_A2-138" style="edgeStyle=orthogonalEdgeStyle;rounded=0;orthogonalLoop=1;jettySize=auto;html=1;entryX=0;entryY=0.5;entryDx=0;entryDy=0;endArrow=none;startFill=0;" edge="1" parent="1" source="bP_TO-FSREH4e1-JL_A2-74" target="bP_TO-FSREH4e1-JL_A2-137">
          <mxGeometry relative="1" as="geometry" />
        </mxCell>
        <mxCell id="bP_TO-FSREH4e1-JL_A2-140" value="1" style="edgeLabel;html=1;align=center;verticalAlign=middle;resizable=0;points=[];" vertex="1" connectable="0" parent="bP_TO-FSREH4e1-JL_A2-138">
          <mxGeometry x="0.1076" y="3" relative="1" as="geometry">
            <mxPoint as="offset" />
          </mxGeometry>
        </mxCell>
        <mxCell id="bP_TO-FSREH4e1-JL_A2-74" value="Servico" style="whiteSpace=wrap;html=1;align=center;" vertex="1" parent="1">
          <mxGeometry x="500" y="140" width="100" height="40" as="geometry" />
        </mxCell>
        <mxCell id="bP_TO-FSREH4e1-JL_A2-75" style="rounded=0;orthogonalLoop=1;jettySize=auto;html=1;endArrow=none;startFill=0;" edge="1" parent="1" source="bP_TO-FSREH4e1-JL_A2-76" target="bP_TO-FSREH4e1-JL_A2-74">
          <mxGeometry relative="1" as="geometry" />
        </mxCell>
        <mxCell id="bP_TO-FSREH4e1-JL_A2-76" value="descricao" style="ellipse;whiteSpace=wrap;html=1;align=center;" vertex="1" parent="1">
          <mxGeometry x="540" y="10" width="100" height="40" as="geometry" />
        </mxCell>
        <mxCell id="bP_TO-FSREH4e1-JL_A2-77" style="rounded=0;orthogonalLoop=1;jettySize=auto;html=1;strokeWidth=1;endArrow=none;startFill=0;" edge="1" parent="1" source="bP_TO-FSREH4e1-JL_A2-78" target="bP_TO-FSREH4e1-JL_A2-74">
          <mxGeometry relative="1" as="geometry" />
        </mxCell>
        <mxCell id="bP_TO-FSREH4e1-JL_A2-78" value="idServico" style="ellipse;whiteSpace=wrap;html=1;align=center;fontStyle=4;" vertex="1" parent="1">
          <mxGeometry x="390" y="40" width="100" height="40" as="geometry" />
        </mxCell>
        <mxCell id="bP_TO-FSREH4e1-JL_A2-79" style="rounded=0;orthogonalLoop=1;jettySize=auto;html=1;endArrow=none;startFill=0;entryX=1;entryY=0;entryDx=0;entryDy=0;" edge="1" parent="1" source="bP_TO-FSREH4e1-JL_A2-80" target="bP_TO-FSREH4e1-JL_A2-74">
          <mxGeometry relative="1" as="geometry">
            <mxPoint x="610" y="150" as="targetPoint" />
          </mxGeometry>
        </mxCell>
        <mxCell id="bP_TO-FSREH4e1-JL_A2-80" value="valorMaodeObra" style="ellipse;whiteSpace=wrap;html=1;align=center;" vertex="1" parent="1">
          <mxGeometry x="640" y="40" width="100" height="40" as="geometry" />
        </mxCell>
        <mxCell id="bP_TO-FSREH4e1-JL_A2-85" value="Peca" style="whiteSpace=wrap;html=1;align=center;" vertex="1" parent="1">
          <mxGeometry x="1010" y="30" width="100" height="40" as="geometry" />
        </mxCell>
        <mxCell id="bP_TO-FSREH4e1-JL_A2-86" style="rounded=0;orthogonalLoop=1;jettySize=auto;html=1;endArrow=none;startFill=0;" edge="1" parent="1" source="bP_TO-FSREH4e1-JL_A2-87" target="bP_TO-FSREH4e1-JL_A2-85">
          <mxGeometry relative="1" as="geometry" />
        </mxCell>
        <mxCell id="bP_TO-FSREH4e1-JL_A2-87" value="nome" style="ellipse;whiteSpace=wrap;html=1;align=center;" vertex="1" parent="1">
          <mxGeometry x="1090" y="-60" width="100" height="40" as="geometry" />
        </mxCell>
        <mxCell id="bP_TO-FSREH4e1-JL_A2-88" style="rounded=0;orthogonalLoop=1;jettySize=auto;html=1;strokeWidth=1;endArrow=none;startFill=0;" edge="1" parent="1" source="bP_TO-FSREH4e1-JL_A2-89" target="bP_TO-FSREH4e1-JL_A2-85">
          <mxGeometry relative="1" as="geometry" />
        </mxCell>
        <mxCell id="bP_TO-FSREH4e1-JL_A2-89" value="idPeca" style="ellipse;whiteSpace=wrap;html=1;align=center;fontStyle=4;" vertex="1" parent="1">
          <mxGeometry x="940" y="-30" width="100" height="40" as="geometry" />
        </mxCell>
        <mxCell id="bP_TO-FSREH4e1-JL_A2-90" style="rounded=0;orthogonalLoop=1;jettySize=auto;html=1;endArrow=none;startFill=0;entryX=1;entryY=0;entryDx=0;entryDy=0;" edge="1" parent="1" source="bP_TO-FSREH4e1-JL_A2-91" target="bP_TO-FSREH4e1-JL_A2-85">
          <mxGeometry relative="1" as="geometry">
            <mxPoint x="1160" y="80" as="targetPoint" />
          </mxGeometry>
        </mxCell>
        <mxCell id="bP_TO-FSREH4e1-JL_A2-91" value="preco" style="ellipse;whiteSpace=wrap;html=1;align=center;" vertex="1" parent="1">
          <mxGeometry x="1190" y="-30" width="100" height="40" as="geometry" />
        </mxCell>
        <mxCell id="bP_TO-FSREH4e1-JL_A2-142" style="edgeStyle=orthogonalEdgeStyle;rounded=0;orthogonalLoop=1;jettySize=auto;html=1;endArrow=none;startFill=0;" edge="1" parent="1" source="bP_TO-FSREH4e1-JL_A2-92" target="bP_TO-FSREH4e1-JL_A2-141">
          <mxGeometry relative="1" as="geometry" />
        </mxCell>
        <mxCell id="bP_TO-FSREH4e1-JL_A2-147" value="1" style="edgeLabel;html=1;align=center;verticalAlign=middle;resizable=0;points=[];" vertex="1" connectable="0" parent="bP_TO-FSREH4e1-JL_A2-142">
          <mxGeometry x="0.05" y="-1" relative="1" as="geometry">
            <mxPoint as="offset" />
          </mxGeometry>
        </mxCell>
        <mxCell id="bP_TO-FSREH4e1-JL_A2-92" value="OS_Servico" style="whiteSpace=wrap;html=1;align=center;" vertex="1" parent="1">
          <mxGeometry x="740" y="280" width="100" height="40" as="geometry" />
        </mxCell>
        <mxCell id="bP_TO-FSREH4e1-JL_A2-95" style="rounded=0;orthogonalLoop=1;jettySize=auto;html=1;strokeWidth=1;endArrow=none;startFill=0;entryX=1;entryY=0.75;entryDx=0;entryDy=0;exitX=0;exitY=1;exitDx=0;exitDy=0;" edge="1" parent="1" source="bP_TO-FSREH4e1-JL_A2-96" target="bP_TO-FSREH4e1-JL_A2-92">
          <mxGeometry relative="1" as="geometry">
            <mxPoint x="910" y="210" as="sourcePoint" />
          </mxGeometry>
        </mxCell>
        <mxCell id="bP_TO-FSREH4e1-JL_A2-96" value="idOS_Num" style="ellipse;whiteSpace=wrap;html=1;align=center;fontStyle=4;" vertex="1" parent="1">
          <mxGeometry x="900" y="365" width="100" height="30" as="geometry" />
        </mxCell>
        <mxCell id="bP_TO-FSREH4e1-JL_A2-99" value="OS_Peca" style="whiteSpace=wrap;html=1;align=center;" vertex="1" parent="1">
          <mxGeometry x="1010" y="190" width="100" height="40" as="geometry" />
        </mxCell>
        <mxCell id="bP_TO-FSREH4e1-JL_A2-102" style="rounded=0;orthogonalLoop=1;jettySize=auto;html=1;strokeWidth=1;endArrow=none;startFill=0;" edge="1" parent="1" source="bP_TO-FSREH4e1-JL_A2-103" target="bP_TO-FSREH4e1-JL_A2-99">
          <mxGeometry relative="1" as="geometry" />
        </mxCell>
        <mxCell id="bP_TO-FSREH4e1-JL_A2-103" value="idOS_Num" style="ellipse;whiteSpace=wrap;html=1;align=center;fontStyle=4;" vertex="1" parent="1">
          <mxGeometry x="1225" y="220" width="100" height="40" as="geometry" />
        </mxCell>
        <mxCell id="bP_TO-FSREH4e1-JL_A2-104" style="rounded=0;orthogonalLoop=1;jettySize=auto;html=1;strokeWidth=1;endArrow=none;startFill=0;entryX=0.64;entryY=0.025;entryDx=0;entryDy=0;entryPerimeter=0;" edge="1" parent="1" source="bP_TO-FSREH4e1-JL_A2-105" target="bP_TO-FSREH4e1-JL_A2-99">
          <mxGeometry relative="1" as="geometry">
            <mxPoint x="1287" y="180" as="targetPoint" />
          </mxGeometry>
        </mxCell>
        <mxCell id="bP_TO-FSREH4e1-JL_A2-105" value="idPeca" style="ellipse;whiteSpace=wrap;html=1;align=center;fontStyle=4;" vertex="1" parent="1">
          <mxGeometry x="1190" y="120" width="100" height="40" as="geometry" />
        </mxCell>
        <mxCell id="bP_TO-FSREH4e1-JL_A2-106" style="rounded=0;orthogonalLoop=1;jettySize=auto;html=1;endArrow=none;startFill=0;entryX=1;entryY=0.25;entryDx=0;entryDy=0;" edge="1" parent="1" source="bP_TO-FSREH4e1-JL_A2-107" target="bP_TO-FSREH4e1-JL_A2-99">
          <mxGeometry relative="1" as="geometry">
            <mxPoint x="1318" y="185" as="targetPoint" />
          </mxGeometry>
        </mxCell>
        <mxCell id="bP_TO-FSREH4e1-JL_A2-107" value="quantidade" style="ellipse;whiteSpace=wrap;html=1;align=center;" vertex="1" parent="1">
          <mxGeometry x="1200" y="170" width="100" height="40" as="geometry" />
        </mxCell>
        <mxCell id="bP_TO-FSREH4e1-JL_A2-108" style="rounded=0;orthogonalLoop=1;jettySize=auto;html=1;strokeWidth=1;endArrow=none;startFill=0;entryX=1;entryY=1;entryDx=0;entryDy=0;" edge="1" parent="1" source="bP_TO-FSREH4e1-JL_A2-109" target="bP_TO-FSREH4e1-JL_A2-92">
          <mxGeometry relative="1" as="geometry">
            <mxPoint x="867" y="210" as="targetPoint" />
          </mxGeometry>
        </mxCell>
        <mxCell id="bP_TO-FSREH4e1-JL_A2-109" value="idServico" style="ellipse;whiteSpace=wrap;html=1;align=center;fontStyle=4;" vertex="1" parent="1">
          <mxGeometry x="800" y="380" width="100" height="40" as="geometry" />
        </mxCell>
        <mxCell id="bP_TO-FSREH4e1-JL_A2-111" style="edgeStyle=orthogonalEdgeStyle;rounded=0;orthogonalLoop=1;jettySize=auto;html=1;entryX=0;entryY=0.5;entryDx=0;entryDy=0;endArrow=none;startFill=0;" edge="1" parent="1" source="bP_TO-FSREH4e1-JL_A2-110" target="bP_TO-FSREH4e1-JL_A2-61">
          <mxGeometry relative="1" as="geometry" />
        </mxCell>
        <mxCell id="bP_TO-FSREH4e1-JL_A2-115" value="N" style="edgeLabel;html=1;align=center;verticalAlign=middle;resizable=0;points=[];" vertex="1" connectable="0" parent="bP_TO-FSREH4e1-JL_A2-111">
          <mxGeometry x="0.14" y="2" relative="1" as="geometry">
            <mxPoint as="offset" />
          </mxGeometry>
        </mxCell>
        <mxCell id="bP_TO-FSREH4e1-JL_A2-112" style="edgeStyle=orthogonalEdgeStyle;rounded=0;orthogonalLoop=1;jettySize=auto;html=1;entryX=1;entryY=0.75;entryDx=0;entryDy=0;endArrow=none;startFill=0;" edge="1" parent="1" source="bP_TO-FSREH4e1-JL_A2-110" target="bP_TO-FSREH4e1-JL_A2-13">
          <mxGeometry relative="1" as="geometry" />
        </mxCell>
        <mxCell id="bP_TO-FSREH4e1-JL_A2-113" value="1" style="edgeLabel;html=1;align=center;verticalAlign=middle;resizable=0;points=[];" vertex="1" connectable="0" parent="bP_TO-FSREH4e1-JL_A2-112">
          <mxGeometry x="0.0615" y="-1" relative="1" as="geometry">
            <mxPoint as="offset" />
          </mxGeometry>
        </mxCell>
        <mxCell id="bP_TO-FSREH4e1-JL_A2-110" value="Tem" style="shape=rhombus;perimeter=rhombusPerimeter;whiteSpace=wrap;html=1;align=center;" vertex="1" parent="1">
          <mxGeometry x="280" y="420" width="120" height="60" as="geometry" />
        </mxCell>
        <mxCell id="bP_TO-FSREH4e1-JL_A2-117" style="edgeStyle=orthogonalEdgeStyle;rounded=0;orthogonalLoop=1;jettySize=auto;html=1;entryX=0.5;entryY=0;entryDx=0;entryDy=0;endArrow=none;startFill=0;" edge="1" parent="1" source="bP_TO-FSREH4e1-JL_A2-116" target="bP_TO-FSREH4e1-JL_A2-52">
          <mxGeometry relative="1" as="geometry" />
        </mxCell>
        <mxCell id="bP_TO-FSREH4e1-JL_A2-119" value="1" style="edgeLabel;html=1;align=center;verticalAlign=middle;resizable=0;points=[];" vertex="1" connectable="0" parent="bP_TO-FSREH4e1-JL_A2-117">
          <mxGeometry x="-0.05" y="-1" relative="1" as="geometry">
            <mxPoint as="offset" />
          </mxGeometry>
        </mxCell>
        <mxCell id="bP_TO-FSREH4e1-JL_A2-116" value="Tem" style="shape=rhombus;perimeter=rhombusPerimeter;whiteSpace=wrap;html=1;align=center;" vertex="1" parent="1">
          <mxGeometry x="490" y="500" width="120" height="60" as="geometry" />
        </mxCell>
        <mxCell id="bP_TO-FSREH4e1-JL_A2-121" value="Possui" style="shape=rhombus;perimeter=rhombusPerimeter;whiteSpace=wrap;html=1;align=center;" vertex="1" parent="1">
          <mxGeometry x="490" y="690" width="120" height="60" as="geometry" />
        </mxCell>
        <mxCell id="bP_TO-FSREH4e1-JL_A2-122" value="1" style="endArrow=none;html=1;rounded=0;entryX=0.5;entryY=0;entryDx=0;entryDy=0;exitX=0.5;exitY=1;exitDx=0;exitDy=0;" edge="1" parent="1" source="bP_TO-FSREH4e1-JL_A2-52" target="bP_TO-FSREH4e1-JL_A2-121">
          <mxGeometry relative="1" as="geometry">
            <mxPoint x="430" y="660" as="sourcePoint" />
            <mxPoint x="590" y="660" as="targetPoint" />
          </mxGeometry>
        </mxCell>
        <mxCell id="bP_TO-FSREH4e1-JL_A2-126" value="1" style="edgeStyle=orthogonalEdgeStyle;rounded=0;orthogonalLoop=1;jettySize=auto;html=1;endArrow=none;startFill=0;" edge="1" parent="1" source="bP_TO-FSREH4e1-JL_A2-124" target="bP_TO-FSREH4e1-JL_A2-30">
          <mxGeometry relative="1" as="geometry" />
        </mxCell>
        <mxCell id="bP_TO-FSREH4e1-JL_A2-127" style="rounded=0;orthogonalLoop=1;jettySize=auto;html=1;endArrow=none;startFill=0;" edge="1" parent="1" source="bP_TO-FSREH4e1-JL_A2-124" target="bP_TO-FSREH4e1-JL_A2-41">
          <mxGeometry relative="1" as="geometry" />
        </mxCell>
        <mxCell id="bP_TO-FSREH4e1-JL_A2-129" value="N" style="edgeLabel;html=1;align=center;verticalAlign=middle;resizable=0;points=[];" vertex="1" connectable="0" parent="bP_TO-FSREH4e1-JL_A2-127">
          <mxGeometry x="-0.0451" y="-3" relative="1" as="geometry">
            <mxPoint as="offset" />
          </mxGeometry>
        </mxCell>
        <mxCell id="bP_TO-FSREH4e1-JL_A2-124" value="Possui" style="shape=rhombus;perimeter=rhombusPerimeter;whiteSpace=wrap;html=1;align=center;" vertex="1" parent="1">
          <mxGeometry x="500" y="920" width="120" height="60" as="geometry" />
        </mxCell>
        <mxCell id="bP_TO-FSREH4e1-JL_A2-125" style="rounded=0;orthogonalLoop=1;jettySize=auto;html=1;entryX=0.422;entryY=0.078;entryDx=0;entryDy=0;entryPerimeter=0;endArrow=none;startFill=0;" edge="1" parent="1" source="bP_TO-FSREH4e1-JL_A2-121" target="bP_TO-FSREH4e1-JL_A2-41">
          <mxGeometry relative="1" as="geometry" />
        </mxCell>
        <mxCell id="bP_TO-FSREH4e1-JL_A2-153" value="N" style="edgeLabel;html=1;align=center;verticalAlign=middle;resizable=0;points=[];" vertex="1" connectable="0" parent="bP_TO-FSREH4e1-JL_A2-125">
          <mxGeometry x="-0.0917" y="2" relative="1" as="geometry">
            <mxPoint as="offset" />
          </mxGeometry>
        </mxCell>
        <mxCell id="bP_TO-FSREH4e1-JL_A2-131" value="Contém" style="shape=rhombus;perimeter=rhombusPerimeter;whiteSpace=wrap;html=1;align=center;" vertex="1" parent="1">
          <mxGeometry x="490" y="270" width="120" height="60" as="geometry" />
        </mxCell>
        <mxCell id="bP_TO-FSREH4e1-JL_A2-136" style="rounded=0;orthogonalLoop=1;jettySize=auto;html=1;entryX=0;entryY=0.5;entryDx=0;entryDy=0;endArrow=none;startFill=0;" edge="1" parent="1" source="bP_TO-FSREH4e1-JL_A2-131" target="bP_TO-FSREH4e1-JL_A2-92">
          <mxGeometry relative="1" as="geometry" />
        </mxCell>
        <mxCell id="bP_TO-FSREH4e1-JL_A2-152" value="N" style="edgeLabel;html=1;align=center;verticalAlign=middle;resizable=0;points=[];" vertex="1" connectable="0" parent="bP_TO-FSREH4e1-JL_A2-136">
          <mxGeometry x="0.0615" y="-1" relative="1" as="geometry">
            <mxPoint as="offset" />
          </mxGeometry>
        </mxCell>
        <mxCell id="bP_TO-FSREH4e1-JL_A2-139" style="rounded=0;orthogonalLoop=1;jettySize=auto;html=1;endArrow=none;startFill=0;" edge="1" parent="1" source="bP_TO-FSREH4e1-JL_A2-137">
          <mxGeometry relative="1" as="geometry">
            <mxPoint x="800" y="282" as="targetPoint" />
          </mxGeometry>
        </mxCell>
        <mxCell id="bP_TO-FSREH4e1-JL_A2-151" value="N" style="edgeLabel;html=1;align=center;verticalAlign=middle;resizable=0;points=[];" vertex="1" connectable="0" parent="bP_TO-FSREH4e1-JL_A2-139">
          <mxGeometry x="-0.2609" y="2" relative="1" as="geometry">
            <mxPoint as="offset" />
          </mxGeometry>
        </mxCell>
        <mxCell id="bP_TO-FSREH4e1-JL_A2-137" value="Contém" style="shape=rhombus;perimeter=rhombusPerimeter;whiteSpace=wrap;html=1;align=center;" vertex="1" parent="1">
          <mxGeometry x="740" y="130" width="120" height="60" as="geometry" />
        </mxCell>
        <mxCell id="bP_TO-FSREH4e1-JL_A2-145" style="edgeStyle=orthogonalEdgeStyle;rounded=0;orthogonalLoop=1;jettySize=auto;html=1;entryX=0.5;entryY=1;entryDx=0;entryDy=0;endArrow=none;startFill=0;" edge="1" parent="1" source="bP_TO-FSREH4e1-JL_A2-141" target="bP_TO-FSREH4e1-JL_A2-99">
          <mxGeometry relative="1" as="geometry" />
        </mxCell>
        <mxCell id="bP_TO-FSREH4e1-JL_A2-150" value="N" style="edgeLabel;html=1;align=center;verticalAlign=middle;resizable=0;points=[];" vertex="1" connectable="0" parent="bP_TO-FSREH4e1-JL_A2-145">
          <mxGeometry x="0.25" relative="1" as="geometry">
            <mxPoint as="offset" />
          </mxGeometry>
        </mxCell>
        <mxCell id="bP_TO-FSREH4e1-JL_A2-141" value="Contém" style="shape=rhombus;perimeter=rhombusPerimeter;whiteSpace=wrap;html=1;align=center;" vertex="1" parent="1">
          <mxGeometry x="1000" y="270" width="120" height="60" as="geometry" />
        </mxCell>
        <mxCell id="bP_TO-FSREH4e1-JL_A2-143" style="rounded=0;orthogonalLoop=1;jettySize=auto;html=1;endArrow=none;startFill=0;exitX=0.5;exitY=1;exitDx=0;exitDy=0;entryX=0.5;entryY=0;entryDx=0;entryDy=0;" edge="1" parent="1" target="bP_TO-FSREH4e1-JL_A2-144" source="bP_TO-FSREH4e1-JL_A2-85">
          <mxGeometry relative="1" as="geometry">
            <mxPoint x="1000" y="70" as="sourcePoint" />
            <mxPoint x="1040" y="140" as="targetPoint" />
          </mxGeometry>
        </mxCell>
        <mxCell id="bP_TO-FSREH4e1-JL_A2-148" value="1" style="edgeLabel;html=1;align=center;verticalAlign=middle;resizable=0;points=[];" vertex="1" connectable="0" parent="bP_TO-FSREH4e1-JL_A2-143">
          <mxGeometry x="-0.2" relative="1" as="geometry">
            <mxPoint as="offset" />
          </mxGeometry>
        </mxCell>
        <mxCell id="bP_TO-FSREH4e1-JL_A2-146" style="edgeStyle=orthogonalEdgeStyle;rounded=0;orthogonalLoop=1;jettySize=auto;html=1;entryX=0.5;entryY=0;entryDx=0;entryDy=0;endArrow=none;startFill=0;" edge="1" parent="1" source="bP_TO-FSREH4e1-JL_A2-144" target="bP_TO-FSREH4e1-JL_A2-99">
          <mxGeometry relative="1" as="geometry" />
        </mxCell>
        <mxCell id="bP_TO-FSREH4e1-JL_A2-149" value="N" style="edgeLabel;html=1;align=center;verticalAlign=middle;resizable=0;points=[];" vertex="1" connectable="0" parent="bP_TO-FSREH4e1-JL_A2-146">
          <mxGeometry x="0.28" y="-2" relative="1" as="geometry">
            <mxPoint as="offset" />
          </mxGeometry>
        </mxCell>
        <mxCell id="bP_TO-FSREH4e1-JL_A2-144" value="Contém" style="shape=rhombus;perimeter=rhombusPerimeter;whiteSpace=wrap;html=1;align=center;" vertex="1" parent="1">
          <mxGeometry x="1000" y="100" width="120" height="60" as="geometry" />
        </mxCell>
      </root>
    </mxGraphModel>
  </diagram>
</mxfile>
